#!OML:ASF I:\golf\golf\golf 2\Subject 1\2002-09-07\Subject1.ASF
:FULLY-SPECIFIED
:DEGREES
306
root -7.28581 18.0924 -3.49553 -172.156 18.1879 -176.004
lowerback -5.09633 10.7849 16.3016
upperback -9.57694 18.509 9.09817
thorax -6.51915 9.82243 1.13495
lowerneck -3.34247 -22.044 -1.93542
upperneck 14.269 -34.9379 6.30649
head 6.42552 -17.4237 -0.485985
rclavicle -5.725e-014 4.13472e-014
rhumerus 96.5661 41.3833 -50.7232
rradius 61.8341
rwrist 6.79632
rhand -31.847 24.9439
rfingers 7.12502
rthumb -5.10095 -4.97469
lclavicle -5.725e-014 4.13472e-014
lhumerus 42.7293 13.8463 77.2695
lradius 84.2273
lwrist 27.9415
lhand -25.8155 14.6233
lfingers 7.12502
lthumb -179.276 -495.398
rfemur 12.2123 -7.24998 12.4043
rtibia 22.5181
rfoot 5.23608 -42.1143
rtoes 38.3617
lfemur -20.7462 -20.1799 -16.0961
ltibia 23.83
lfoot 9.72995 -48.6933
ltoes 29.3233
307
root -7.27981 18.0897 -3.55047 -172.092 17.4874 -175.919
lowerback -5.32039 10.8605 16.2251
upperback -9.77189 18.6332 8.9229
thorax -6.57456 9.89297 1.0279
lowerneck -3.75954 -22.0194 -2.37692
upperneck 14.109 -34.6079 6.41939
head 6.50793 -17.2211 -0.447007
rclavicle 4.77083e-014 1.90833e-014
rhumerus 97.9453 40.8205 -50.6181
rradius 63.0674
rwrist 7.18959
rhand -32.6448 25.7601
rfingers 7.12502
rthumb -5.87125 -4.13854
lclavicle 4.77083e-014 1.90833e-014
lhumerus 44.6171 14.7076 76.6199
lradius 85.3724
lwrist 27.2192
lhand -26.257 15.1196
lfingers 7.12502
lthumb -179.702 -494.901
rfemur 12.8169 -7.21188 12.5969
rtibia 21.8258
rfoot 7.57256 -42.2299
rtoes 38.2025
lfemur -20.8362 -20.3996 -16.0369
ltibia 23.9682
lfoot 11.6472 -48.9757
ltoes 31.4058
308
root -7.2767 18.0908 -3.60174 -172.037 16.7658 -175.841
lowerback -5.50455 10.894 16.1612
upperback -10.0175 18.7174 8.71026
thorax -6.6961 9.93444 0.85689
lowerneck -3.84581 -21.9711 -2.79142
upperneck 13.799 -34.3401 6.71955
head 6.52403 -17.0684 -0.317209
rclavicle 2.54444e-014 -9.22361e-014
rhumerus 99.0875 40.3695 -50.6945
rradius 64.407
rwrist 7.5739
rhand -33.0299 26.2413
rfingers 7.12502
rthumb -6.24312 -3.64672
lclavicle 2.54444e-014 -9.22361e-014
lhumerus 46.2685 15.5243 75.7639
lradius 86.32
lwrist 26.5618
lhand -26.8654 15.3679
lfingers 7.12502
lthumb -180.29 -494.653
rfemur 13.3825 -7.08983 12.8369
rtibia 21.1725
rfoot 10.5268 -42.0187
rtoes 36.8973
lfemur -20.8148 -20.4885 -16.0523
ltibia 24.1037
lfoot 10.4972 -49.8481
ltoes 29.8763
309
root -7.27324 18.0948 -3.65124 -171.91 16.0959 -175.696
lowerback -5.74208 10.9286 16.1596
upperback -10.3215 18.808 8.45961
thorax -6.82924 9.97542 0.626716
lowerneck -3.69678 -21.8676 -3.04889
upperneck 13.2794 -34.0336 7.15433
head 6.43336 -16.9121 -0.112514
rclavicle -2.54444e-014 -1.65389e-013
rhumerus 99.9225 40.0814 -51.0385
rradius 65.7432
rwrist 7.8584
rhand -34.3765 26.8891
rfingers 7.12502
rthumb -7.54298 -2.95642
lclavicle -2.54444e-014 -1.65389e-013
lhumerus 47.7212 16.3463 74.7396
lradius 87.1879
lwrist 26.091
lhand -27.2793 15.5653
lfingers 7.12502
lthumb -180.69 -494.456
rfemur 13.7949 -6.88823 13.1681
rtibia 20.6587
rfoot 12.6238 -41.5724
rtoes 34.7717
lfemur -20.8314 -20.6627 -15.9353
ltibia 24.1098
lfoot 11.1046 -50.157
ltoes 30.353
310
root -7.27044 18.0957 -3.69848 -171.749 15.5988 -175.639
lowerback -6.03131 11.066 16.0559
upperback -10.5528 18.9705 8.15995
thorax -6.84342 10.0549 0.429387
lowerneck -3.63567 -21.8719 -3.13084
upperneck 12.536 -33.7996 7.52688
head 6.24781 -16.7854 0.0692531
rclavicle -8.90555e-014 -8.26944e-014
rhumerus 100.741 39.6407 -51.2535
rradius 67.0511
rwrist 7.8227
rhand -35.0682 27.6278
rfingers 7.12502
rthumb -8.21062 -2.19263
lclavicle -8.90555e-014 -8.26944e-014
lhumerus 49.2516 17.0612 73.6677
lradius 87.8661
lwrist 25.0296
lhand -27.9815 15.6288
lfingers 7.12502
lthumb -181.368 -494.396
rfemur 14.0951 -6.70041 13.3101
rtibia 20.1781
rfoot 12.8144 -41.7044
rtoes 35.2471
lfemur -21.011 -20.9188 -15.843
ltibia 24.1574
lfoot 13.9782 -49.8339
ltoes 33.3355
